<?xml version="1.0" encoding="UTF-8" standalone="no"?>
<!DOCTYPE svg PUBLIC "-//W3C//DTD SVG 1.1//EN" "http://www.w3.org/Graphics/SVG/1.1/DTD/svg11.dtd">
<svg width="100%" height="100%" viewBox="0 0 85 14" version="1.1" xmlns="http://www.w3.org/2000/svg" xmlns:xlink="http://www.w3.org/1999/xlink" xml:space="preserve" xmlns:serif="http://www.serif.com/" style="fill-rule:evenodd;clip-rule:evenodd;stroke-linejoin:round;stroke-miterlimit:2;">
    <g transform="matrix(1,0,0,1,-860.86,-598.061)">
        <g>
            <g transform="matrix(24.0724,0,0,24.0724,859.897,611.71)">
                <path d="M0.04,-0.123L0.389,-0.319L0.042,-0.496L0.042,-0.567L0.466,-0.344L0.466,-0.296L0.04,-0.047L0.04,-0.123Z" style="fill:rgb(0,194,255);fill-rule:nonzero;"/>
            </g>
            <g transform="matrix(60.2547,0,0,24.0724,873.494,610.121)">
                <rect x="0.035" y="0.019" width="0.431" height="0.061" style="fill:rgb(0,194,255);fill-rule:nonzero;"/>
            </g>
            <g transform="matrix(1,0,0,1,-10.4077,8.0556)">
                <g transform="matrix(12,0,0,12,884.81,600.224)">
                    <path d="M0.1,-0L0.248,-0C0.452,-0 0.544,-0.136 0.544,-0.332C0.544,-0.528 0.452,-0.66 0.248,-0.66L0.1,-0.66L0.1,-0ZM0.132,-0.028L0.132,-0.632L0.244,-0.632C0.432,-0.632 0.51,-0.506 0.51,-0.332C0.51,-0.158 0.432,-0.028 0.244,-0.028L0.132,-0.028Z" style="fill-rule:nonzero;"/>
                </g>
                <g transform="matrix(12,0,0,12,891.998,600.224)">
                    <path d="M0.3,0.012C0.442,0.012 0.544,-0.124 0.544,-0.332C0.544,-0.54 0.442,-0.672 0.3,-0.672C0.158,-0.672 0.056,-0.54 0.056,-0.332C0.056,-0.124 0.158,0.012 0.3,0.012ZM0.3,-0.018C0.175,-0.018 0.09,-0.142 0.09,-0.332C0.09,-0.522 0.175,-0.642 0.3,-0.642C0.425,-0.642 0.51,-0.522 0.51,-0.332C0.51,-0.142 0.425,-0.018 0.3,-0.018Z" style="fill-rule:nonzero;"/>
                </g>
                <g transform="matrix(12,0,0,12,899.186,600.224)">
                    <path d="M0.124,-0L0.156,-0L0.156,-0.312L0.304,-0.312L0.49,-0L0.528,-0L0.34,-0.314C0.45,-0.324 0.518,-0.385 0.518,-0.49C0.518,-0.612 0.436,-0.66 0.306,-0.66L0.124,-0.66L0.124,-0ZM0.156,-0.34L0.156,-0.632L0.294,-0.632C0.416,-0.632 0.484,-0.594 0.484,-0.49C0.484,-0.388 0.416,-0.34 0.294,-0.34L0.156,-0.34Z" style="fill-rule:nonzero;"/>
                </g>
                <g transform="matrix(12,0,0,12,906.374,600.224)">
                    <path d="M0.156,-0L0.188,-0L0.188,-0.326L0.479,-0.326L0.479,-0.354L0.188,-0.354L0.188,-0.632L0.534,-0.632L0.534,-0.66L0.156,-0.66L0.156,-0Z" style="fill-rule:nonzero;"/>
                </g>
                <g transform="matrix(12,0,0,12,913.562,600.224)">
                    <path d="M0.096,-0L0.126,-0L0.126,-0.433C0.126,-0.495 0.123,-0.551 0.122,-0.614L0.124,-0.614L0.197,-0.486L0.471,-0L0.504,-0L0.504,-0.66L0.474,-0.66L0.474,-0.231C0.474,-0.169 0.477,-0.109 0.478,-0.046L0.476,-0.046L0.403,-0.174L0.129,-0.66L0.096,-0.66L0.096,-0Z" style="fill-rule:nonzero;"/>
                </g>
                <g transform="matrix(12,0,0,12,920.75,600.224)">
                    <path d="M0.132,-0L0.526,-0L0.526,-0.028L0.164,-0.028L0.164,-0.338L0.46,-0.338L0.46,-0.366L0.164,-0.366L0.164,-0.632L0.516,-0.632L0.516,-0.66L0.132,-0.66L0.132,-0Z" style="fill-rule:nonzero;"/>
                </g>
                <g transform="matrix(12,0,0,12,927.938,600.224)">
                    <path d="M0.284,-0L0.316,-0L0.316,-0.632L0.55,-0.632L0.55,-0.66L0.05,-0.66L0.05,-0.632L0.284,-0.632L0.284,-0Z" style="fill-rule:nonzero;"/>
                </g>
                <g transform="matrix(12,0,0,12,935.126,600.224)">
                    <path d="M0.284,-0L0.316,-0L0.316,-0.632L0.55,-0.632L0.55,-0.66L0.05,-0.66L0.05,-0.632L0.284,-0.632L0.284,-0Z" style="fill-rule:nonzero;"/>
                </g>
                <g transform="matrix(12,0,0,12,942.314,600.224)">
                    <path d="M0.132,-0L0.526,-0L0.526,-0.028L0.164,-0.028L0.164,-0.338L0.46,-0.338L0.46,-0.366L0.164,-0.366L0.164,-0.632L0.516,-0.632L0.516,-0.66L0.132,-0.66L0.132,-0Z" style="fill-rule:nonzero;"/>
                </g>
                <g transform="matrix(12,0,0,12,949.502,600.224)">
                    <path d="M0.124,-0L0.156,-0L0.156,-0.312L0.304,-0.312L0.49,-0L0.528,-0L0.34,-0.314C0.45,-0.324 0.518,-0.385 0.518,-0.49C0.518,-0.612 0.436,-0.66 0.306,-0.66L0.124,-0.66L0.124,-0ZM0.156,-0.34L0.156,-0.632L0.294,-0.632C0.416,-0.632 0.484,-0.594 0.484,-0.49C0.484,-0.388 0.416,-0.34 0.294,-0.34L0.156,-0.34Z" style="fill-rule:nonzero;"/>
                </g>
            </g>
        </g>
    </g>
</svg>
